<svg xmlns="http://www.w3.org/2000/svg" viewBox="0 0 512 512" role="img" aria-label="Post-award">
  <defs>
    <linearGradient id="postAwardTile" x1="76" y1="56" x2="444" y2="456" gradientUnits="userSpaceOnUse">
      <stop offset="0" stop-color="#0f172a"/>
      <stop offset="0.58" stop-color="#164e63"/>
      <stop offset="1" stop-color="#0f766e"/>
    </linearGradient>
    <linearGradient id="postAwardSheet" x1="152" y1="92" x2="330" y2="390" gradientUnits="userSpaceOnUse">
      <stop offset="0" stop-color="#ffffff"/>
      <stop offset="1" stop-color="#e0f2fe"/>
    </linearGradient>
    <filter id="postAwardShadow" x="-18%" y="-18%" width="136%" height="142%" color-interpolation-filters="sRGB">
      <feDropShadow dx="0" dy="18" stdDeviation="18" flood-color="#020617" flood-opacity="0.28"/>
    </filter>
  </defs>
  <rect width="512" height="512" rx="104" fill="url(#postAwardTile)"/>
  <path d="M86 390h340" stroke="#67e8f9" stroke-width="10" stroke-linecap="round" opacity="0.22"/>
  <path d="M96 124h96M320 78h92M374 432h56" stroke="#ccfbf1" stroke-width="12" stroke-linecap="round" opacity="0.22"/>

  <path d="M136 104c0-22 18-40 40-40h122l82 82v242c0 22-18 40-40 40H176c-22 0-40-18-40-40V104z" fill="url(#postAwardSheet)" filter="url(#postAwardShadow)"/>
  <path d="M296 66v64c0 18 15 33 33 33h49" fill="#bae6fd"/>
  <path d="M184 171h104" stroke="#0f172a" stroke-width="20" stroke-linecap="round"/>
  <path d="M184 224h142" stroke="#38bdf8" stroke-width="16" stroke-linecap="round"/>
  <path d="M184 272h108" stroke="#38bdf8" stroke-width="16" stroke-linecap="round"/>

  <rect x="190" y="316" width="130" height="50" rx="17" fill="#ecfeff" stroke="#0f766e" stroke-width="9"/>
  <path d="M220 341h70" stroke="#0f766e" stroke-width="12" stroke-linecap="round"/>

  <rect x="294" y="272" width="132" height="132" rx="38" fill="#0f172a" opacity="0.16"/>
  <rect x="282" y="256" width="132" height="132" rx="38" fill="#f8fafc"/>
  <path d="M316 324l24 24 48-58" fill="none" stroke="#059669" stroke-width="22" stroke-linecap="round" stroke-linejoin="round"/>

  <path d="M102 322h46c13 0 24 11 24 24v46h-46c-13 0-24-11-24-24v-46z" fill="#14b8a6"/>
  <path d="M102 346h70" stroke="#ccfbf1" stroke-width="9" stroke-linecap="round"/>
  <path d="M126 322v70" stroke="#ccfbf1" stroke-width="9" stroke-linecap="round"/>

  <circle cx="402" cy="132" r="38" fill="#f8fafc"/>
  <path d="M386 133h32M402 116v34" stroke="#0f766e" stroke-width="14" stroke-linecap="round"/>
</svg>
