<svg xmlns="http://www.w3.org/2000/svg" viewBox="0 0 512 512" role="img" aria-label="Post Award">
  <defs>
    <linearGradient id="postAwardBg" x1="80" y1="48" x2="432" y2="464" gradientUnits="userSpaceOnUse">
      <stop offset="0" stop-color="#0f766e"/>
      <stop offset="0.54" stop-color="#2563eb"/>
      <stop offset="1" stop-color="#4338ca"/>
    </linearGradient>
    <linearGradient id="postAwardCard" x1="144" y1="86" x2="344" y2="366" gradientUnits="userSpaceOnUse">
      <stop offset="0" stop-color="#ffffff"/>
      <stop offset="1" stop-color="#dbeafe"/>
    </linearGradient>
    <filter id="postAwardShadow" x="-20%" y="-20%" width="140%" height="150%" color-interpolation-filters="sRGB">
      <feDropShadow dx="0" dy="18" stdDeviation="18" flood-color="#0f172a" flood-opacity="0.24"/>
    </filter>
  </defs>
  <rect width="512" height="512" rx="112" fill="url(#postAwardBg)"/>
  <circle cx="414" cy="118" r="54" fill="#fbbf24" opacity="0.94"/>
  <circle cx="88" cy="392" r="42" fill="#22d3ee" opacity="0.5"/>
  <path d="M128 116c0-24 19-43 43-43h118l95 95v218c0 24-19 43-43 43H171c-24 0-43-19-43-43V116z" fill="url(#postAwardCard)" filter="url(#postAwardShadow)"/>
  <path d="M286 75v76c0 16 13 29 29 29h68" fill="#bfdbfe"/>
  <path d="M178 184h132" stroke="#1e40af" stroke-width="22" stroke-linecap="round"/>
  <path d="M178 240h142" stroke="#60a5fa" stroke-width="18" stroke-linecap="round"/>
  <path d="M178 292h86" stroke="#60a5fa" stroke-width="18" stroke-linecap="round"/>
  <rect x="262" y="304" width="146" height="114" rx="34" fill="#0f172a" opacity="0.14"/>
  <rect x="250" y="288" width="146" height="114" rx="34" fill="#ecfeff"/>
  <path d="M284 346l28 28 54-64" fill="none" stroke="#059669" stroke-width="24" stroke-linecap="round" stroke-linejoin="round"/>
  <path d="M117 358h92c14 0 26 12 26 26v17H143c-14 0-26-12-26-26v-17z" fill="#facc15"/>
  <path d="M156 334h50c16 0 29 13 29 29v15h-50c-16 0-29-13-29-29v-15z" fill="#fde68a"/>
</svg>
